<mxfile host="Electron" modified="2023-11-11T16:38:56.937Z" agent="Mozilla/5.0 (Windows NT 10.0; Win64; x64) AppleWebKit/537.36 (KHTML, like Gecko) draw.io/21.6.8 Chrome/114.0.5735.289 Electron/25.5.0 Safari/537.36" etag="YUh9mcp0_MAgxpT9fGUX" version="21.6.8" type="device">
  <diagram name="第 1 页" id="g9a9WJbPd82pONv9eINM">
    <mxGraphModel dx="2752" dy="-341" grid="1" gridSize="10" guides="1" tooltips="1" connect="1" arrows="1" fold="1" page="1" pageScale="1" pageWidth="827" pageHeight="1169" math="0" shadow="0">
      <root>
        <mxCell id="0" />
        <mxCell id="1" parent="0" />
        <mxCell id="4605UwU9DzvmUd3ZkHMn-1" value="json.Serializer" style="swimlane;fontStyle=1;align=center;verticalAlign=top;childLayout=stackLayout;horizontal=1;startSize=26;horizontalStack=0;resizeParent=1;resizeParentMax=0;resizeLast=0;collapsible=1;marginBottom=0;whiteSpace=wrap;html=1;" vertex="1" parent="1">
          <mxGeometry x="-1120" y="2280" width="400" height="284" as="geometry" />
        </mxCell>
        <mxCell id="4605UwU9DzvmUd3ZkHMn-2" value="meta&amp;nbsp; &amp;nbsp; MetaFactory" style="text;strokeColor=none;fillColor=none;align=left;verticalAlign=top;spacingLeft=4;spacingRight=4;overflow=hidden;rotatable=0;points=[[0,0.5],[1,0.5]];portConstraint=eastwest;whiteSpace=wrap;html=1;" vertex="1" parent="4605UwU9DzvmUd3ZkHMn-1">
          <mxGeometry y="26" width="400" height="26" as="geometry" />
        </mxCell>
        <mxCell id="4605UwU9DzvmUd3ZkHMn-3" value="options SerializerOptions" style="text;strokeColor=none;fillColor=none;align=left;verticalAlign=top;spacingLeft=4;spacingRight=4;overflow=hidden;rotatable=0;points=[[0,0.5],[1,0.5]];portConstraint=eastwest;whiteSpace=wrap;html=1;" vertex="1" parent="4605UwU9DzvmUd3ZkHMn-1">
          <mxGeometry y="52" width="400" height="26" as="geometry" />
        </mxCell>
        <mxCell id="4605UwU9DzvmUd3ZkHMn-4" value="creater runtime.ObjectCreater" style="text;strokeColor=none;fillColor=none;align=left;verticalAlign=top;spacingLeft=4;spacingRight=4;overflow=hidden;rotatable=0;points=[[0,0.5],[1,0.5]];portConstraint=eastwest;whiteSpace=wrap;html=1;" vertex="1" parent="4605UwU9DzvmUd3ZkHMn-1">
          <mxGeometry y="78" width="400" height="26" as="geometry" />
        </mxCell>
        <mxCell id="4605UwU9DzvmUd3ZkHMn-5" value="typer&amp;nbsp; &amp;nbsp;runtime.ObjectTyper" style="text;strokeColor=none;fillColor=none;align=left;verticalAlign=top;spacingLeft=4;spacingRight=4;overflow=hidden;rotatable=0;points=[[0,0.5],[1,0.5]];portConstraint=eastwest;whiteSpace=wrap;html=1;" vertex="1" parent="4605UwU9DzvmUd3ZkHMn-1">
          <mxGeometry y="104" width="400" height="26" as="geometry" />
        </mxCell>
        <mxCell id="4605UwU9DzvmUd3ZkHMn-6" value="identifier runtime.Identifier" style="text;strokeColor=none;fillColor=none;align=left;verticalAlign=top;spacingLeft=4;spacingRight=4;overflow=hidden;rotatable=0;points=[[0,0.5],[1,0.5]];portConstraint=eastwest;whiteSpace=wrap;html=1;" vertex="1" parent="4605UwU9DzvmUd3ZkHMn-1">
          <mxGeometry y="130" width="400" height="26" as="geometry" />
        </mxCell>
        <mxCell id="4605UwU9DzvmUd3ZkHMn-7" value="" style="line;strokeWidth=1;fillColor=none;align=left;verticalAlign=middle;spacingTop=-1;spacingLeft=3;spacingRight=3;rotatable=0;labelPosition=right;points=[];portConstraint=eastwest;strokeColor=inherit;" vertex="1" parent="4605UwU9DzvmUd3ZkHMn-1">
          <mxGeometry y="156" width="400" height="8" as="geometry" />
        </mxCell>
        <mxCell id="4605UwU9DzvmUd3ZkHMn-8" value="Decode(originalData []byte, gvk *schema.GroupVersionKind, into runtime.Object) (runtime.Object, *schema.GroupVersionKind, error)" style="text;strokeColor=none;fillColor=none;align=left;verticalAlign=top;spacingLeft=4;spacingRight=4;overflow=hidden;rotatable=0;points=[[0,0.5],[1,0.5]];portConstraint=eastwest;whiteSpace=wrap;html=1;" vertex="1" parent="4605UwU9DzvmUd3ZkHMn-1">
          <mxGeometry y="164" width="400" height="42" as="geometry" />
        </mxCell>
        <mxCell id="4605UwU9DzvmUd3ZkHMn-9" value="Encode(obj runtime.Object, w io.Writer) error" style="text;strokeColor=none;fillColor=none;align=left;verticalAlign=top;spacingLeft=4;spacingRight=4;overflow=hidden;rotatable=0;points=[[0,0.5],[1,0.5]];portConstraint=eastwest;whiteSpace=wrap;html=1;" vertex="1" parent="4605UwU9DzvmUd3ZkHMn-1">
          <mxGeometry y="206" width="400" height="26" as="geometry" />
        </mxCell>
        <mxCell id="4605UwU9DzvmUd3ZkHMn-10" value="Identifier() runtime.Identifier" style="text;strokeColor=none;fillColor=none;align=left;verticalAlign=top;spacingLeft=4;spacingRight=4;overflow=hidden;rotatable=0;points=[[0,0.5],[1,0.5]];portConstraint=eastwest;whiteSpace=wrap;html=1;" vertex="1" parent="4605UwU9DzvmUd3ZkHMn-1">
          <mxGeometry y="232" width="400" height="26" as="geometry" />
        </mxCell>
        <mxCell id="4605UwU9DzvmUd3ZkHMn-11" value="RecognizesData(data []byte) (ok, unknown bool, err error)" style="text;strokeColor=none;fillColor=none;align=left;verticalAlign=top;spacingLeft=4;spacingRight=4;overflow=hidden;rotatable=0;points=[[0,0.5],[1,0.5]];portConstraint=eastwest;whiteSpace=wrap;html=1;" vertex="1" parent="4605UwU9DzvmUd3ZkHMn-1">
          <mxGeometry y="258" width="400" height="26" as="geometry" />
        </mxCell>
        <mxCell id="4605UwU9DzvmUd3ZkHMn-12" value="protobuf.Serializer" style="swimlane;fontStyle=1;align=center;verticalAlign=top;childLayout=stackLayout;horizontal=1;startSize=26;horizontalStack=0;resizeParent=1;resizeParentMax=0;resizeLast=0;collapsible=1;marginBottom=0;whiteSpace=wrap;html=1;" vertex="1" parent="1">
          <mxGeometry x="-1600" y="2280" width="400" height="282" as="geometry" />
        </mxCell>
        <mxCell id="4605UwU9DzvmUd3ZkHMn-13" value="prefix&amp;nbsp; []byte" style="text;strokeColor=none;fillColor=none;align=left;verticalAlign=top;spacingLeft=4;spacingRight=4;overflow=hidden;rotatable=0;points=[[0,0.5],[1,0.5]];portConstraint=eastwest;whiteSpace=wrap;html=1;" vertex="1" parent="4605UwU9DzvmUd3ZkHMn-12">
          <mxGeometry y="26" width="400" height="26" as="geometry" />
        </mxCell>
        <mxCell id="4605UwU9DzvmUd3ZkHMn-14" value="creater runtime.ObjectCreater" style="text;strokeColor=none;fillColor=none;align=left;verticalAlign=top;spacingLeft=4;spacingRight=4;overflow=hidden;rotatable=0;points=[[0,0.5],[1,0.5]];portConstraint=eastwest;whiteSpace=wrap;html=1;" vertex="1" parent="4605UwU9DzvmUd3ZkHMn-12">
          <mxGeometry y="52" width="400" height="26" as="geometry" />
        </mxCell>
        <mxCell id="4605UwU9DzvmUd3ZkHMn-15" value="typer&amp;nbsp; &amp;nbsp;runtime.ObjectTyper" style="text;strokeColor=none;fillColor=none;align=left;verticalAlign=top;spacingLeft=4;spacingRight=4;overflow=hidden;rotatable=0;points=[[0,0.5],[1,0.5]];portConstraint=eastwest;whiteSpace=wrap;html=1;" vertex="1" parent="4605UwU9DzvmUd3ZkHMn-12">
          <mxGeometry y="78" width="400" height="26" as="geometry" />
        </mxCell>
        <mxCell id="4605UwU9DzvmUd3ZkHMn-16" value="" style="line;strokeWidth=1;fillColor=none;align=left;verticalAlign=middle;spacingTop=-1;spacingLeft=3;spacingRight=3;rotatable=0;labelPosition=right;points=[];portConstraint=eastwest;strokeColor=inherit;" vertex="1" parent="4605UwU9DzvmUd3ZkHMn-12">
          <mxGeometry y="104" width="400" height="8" as="geometry" />
        </mxCell>
        <mxCell id="4605UwU9DzvmUd3ZkHMn-17" value="Decode(originalData []byte, gvk *schema.GroupVersionKind, into runtime.Object) (runtime.Object, *schema.GroupVersionKind, error)" style="text;strokeColor=none;fillColor=none;align=left;verticalAlign=top;spacingLeft=4;spacingRight=4;overflow=hidden;rotatable=0;points=[[0,0.5],[1,0.5]];portConstraint=eastwest;whiteSpace=wrap;html=1;" vertex="1" parent="4605UwU9DzvmUd3ZkHMn-12">
          <mxGeometry y="112" width="400" height="48" as="geometry" />
        </mxCell>
        <mxCell id="4605UwU9DzvmUd3ZkHMn-18" value="Encode(obj runtime.Object, w io.Writer) error" style="text;strokeColor=none;fillColor=none;align=left;verticalAlign=top;spacingLeft=4;spacingRight=4;overflow=hidden;rotatable=0;points=[[0,0.5],[1,0.5]];portConstraint=eastwest;whiteSpace=wrap;html=1;" vertex="1" parent="4605UwU9DzvmUd3ZkHMn-12">
          <mxGeometry y="160" width="400" height="26" as="geometry" />
        </mxCell>
        <mxCell id="4605UwU9DzvmUd3ZkHMn-19" value="EncodeWithAllocator(obj runtime.Object, w io.Writer, memAlloc runtime.MemoryAllocator) error" style="text;strokeColor=none;fillColor=none;align=left;verticalAlign=top;spacingLeft=4;spacingRight=4;overflow=hidden;rotatable=0;points=[[0,0.5],[1,0.5]];portConstraint=eastwest;whiteSpace=wrap;html=1;" vertex="1" parent="4605UwU9DzvmUd3ZkHMn-12">
          <mxGeometry y="186" width="400" height="44" as="geometry" />
        </mxCell>
        <mxCell id="4605UwU9DzvmUd3ZkHMn-20" value="Identifier() runtime.Identifier" style="text;strokeColor=none;fillColor=none;align=left;verticalAlign=top;spacingLeft=4;spacingRight=4;overflow=hidden;rotatable=0;points=[[0,0.5],[1,0.5]];portConstraint=eastwest;whiteSpace=wrap;html=1;" vertex="1" parent="4605UwU9DzvmUd3ZkHMn-12">
          <mxGeometry y="230" width="400" height="26" as="geometry" />
        </mxCell>
        <mxCell id="4605UwU9DzvmUd3ZkHMn-21" value="RecognizesData(data []byte) (bool, bool, error)" style="text;strokeColor=none;fillColor=none;align=left;verticalAlign=top;spacingLeft=4;spacingRight=4;overflow=hidden;rotatable=0;points=[[0,0.5],[1,0.5]];portConstraint=eastwest;whiteSpace=wrap;html=1;" vertex="1" parent="4605UwU9DzvmUd3ZkHMn-12">
          <mxGeometry y="256" width="400" height="26" as="geometry" />
        </mxCell>
        <mxCell id="4605UwU9DzvmUd3ZkHMn-22" value="" style="endArrow=block;dashed=1;endFill=0;endSize=12;html=1;rounded=0;entryX=0.5;entryY=1;entryDx=0;entryDy=0;exitX=0.25;exitY=0;exitDx=0;exitDy=0;" edge="1" parent="1" source="4605UwU9DzvmUd3ZkHMn-1" target="4605UwU9DzvmUd3ZkHMn-27">
          <mxGeometry width="160" relative="1" as="geometry">
            <mxPoint x="-1260" y="2000" as="sourcePoint" />
            <mxPoint x="-1250" y="2060" as="targetPoint" />
          </mxGeometry>
        </mxCell>
        <mxCell id="4605UwU9DzvmUd3ZkHMn-23" value="Implements" style="edgeLabel;html=1;align=center;verticalAlign=middle;resizable=0;points=[];" vertex="1" connectable="0" parent="4605UwU9DzvmUd3ZkHMn-22">
          <mxGeometry x="-0.1184" relative="1" as="geometry">
            <mxPoint y="-5" as="offset" />
          </mxGeometry>
        </mxCell>
        <mxCell id="4605UwU9DzvmUd3ZkHMn-24" value="" style="endArrow=block;dashed=1;endFill=0;endSize=12;html=1;rounded=0;exitX=0.75;exitY=0;exitDx=0;exitDy=0;entryX=0.5;entryY=1;entryDx=0;entryDy=0;" edge="1" parent="1" source="4605UwU9DzvmUd3ZkHMn-12" target="4605UwU9DzvmUd3ZkHMn-27">
          <mxGeometry width="160" relative="1" as="geometry">
            <mxPoint x="-1250" y="2430" as="sourcePoint" />
            <mxPoint x="-1230" y="2140" as="targetPoint" />
          </mxGeometry>
        </mxCell>
        <mxCell id="4605UwU9DzvmUd3ZkHMn-25" value="Implements" style="edgeLabel;html=1;align=center;verticalAlign=middle;resizable=0;points=[];" vertex="1" connectable="0" parent="4605UwU9DzvmUd3ZkHMn-24">
          <mxGeometry x="0.228" y="-3" relative="1" as="geometry">
            <mxPoint y="15" as="offset" />
          </mxGeometry>
        </mxCell>
        <mxCell id="4605UwU9DzvmUd3ZkHMn-26" value="" style="group" vertex="1" connectable="0" parent="1">
          <mxGeometry x="-1370" y="1950" width="420" height="232" as="geometry" />
        </mxCell>
        <mxCell id="4605UwU9DzvmUd3ZkHMn-27" value="k8s.io/apimachinery/pkg/runtime/interfaces.go" style="rounded=0;whiteSpace=wrap;html=1;verticalAlign=top;" vertex="1" parent="4605UwU9DzvmUd3ZkHMn-26">
          <mxGeometry width="420" height="232" as="geometry" />
        </mxCell>
        <mxCell id="4605UwU9DzvmUd3ZkHMn-28" value="&amp;lt;&amp;lt;Encoder&amp;gt;&amp;gt;" style="swimlane;fontStyle=0;childLayout=stackLayout;horizontal=1;startSize=26;fillColor=none;horizontalStack=0;resizeParent=1;resizeParentMax=0;resizeLast=0;collapsible=1;marginBottom=0;whiteSpace=wrap;html=1;" vertex="1" parent="4605UwU9DzvmUd3ZkHMn-26">
          <mxGeometry x="20" y="130" width="380" height="78" as="geometry" />
        </mxCell>
        <mxCell id="4605UwU9DzvmUd3ZkHMn-29" value="Encode(obj Object, w io.Writer) error" style="text;strokeColor=none;fillColor=none;align=left;verticalAlign=top;spacingLeft=4;spacingRight=4;overflow=hidden;rotatable=0;points=[[0,0.5],[1,0.5]];portConstraint=eastwest;whiteSpace=wrap;html=1;" vertex="1" parent="4605UwU9DzvmUd3ZkHMn-28">
          <mxGeometry y="26" width="380" height="26" as="geometry" />
        </mxCell>
        <mxCell id="4605UwU9DzvmUd3ZkHMn-30" value="Identifier() Identifier" style="text;strokeColor=none;fillColor=none;align=left;verticalAlign=top;spacingLeft=4;spacingRight=4;overflow=hidden;rotatable=0;points=[[0,0.5],[1,0.5]];portConstraint=eastwest;whiteSpace=wrap;html=1;" vertex="1" parent="4605UwU9DzvmUd3ZkHMn-28">
          <mxGeometry y="52" width="380" height="26" as="geometry" />
        </mxCell>
        <mxCell id="4605UwU9DzvmUd3ZkHMn-31" value="&amp;lt;&amp;lt;Decoder&amp;gt;&amp;gt;" style="swimlane;fontStyle=0;childLayout=stackLayout;horizontal=1;startSize=26;fillColor=none;horizontalStack=0;resizeParent=1;resizeParentMax=0;resizeLast=0;collapsible=1;marginBottom=0;whiteSpace=wrap;html=1;" vertex="1" parent="4605UwU9DzvmUd3ZkHMn-26">
          <mxGeometry x="20" y="44" width="380" height="70" as="geometry" />
        </mxCell>
        <mxCell id="4605UwU9DzvmUd3ZkHMn-32" value="Decode(data []byte, defaults *schema.GroupVersionKind, into Object) (Object, *schema.GroupVersionKind, error)" style="text;strokeColor=none;fillColor=none;align=left;verticalAlign=top;spacingLeft=4;spacingRight=4;overflow=hidden;rotatable=0;points=[[0,0.5],[1,0.5]];portConstraint=eastwest;whiteSpace=wrap;html=1;" vertex="1" parent="4605UwU9DzvmUd3ZkHMn-31">
          <mxGeometry y="26" width="380" height="44" as="geometry" />
        </mxCell>
      </root>
    </mxGraphModel>
  </diagram>
</mxfile>
